<svg version="1.0" xmlns="http://www.w3.org/2000/svg"
 width="512" height="153" viewBox="0 0 512.000000 153.000000">
<g transform="translate(0.000000,153.000000) scale(0.100000,-0.100000)" fill="#08a861" >
<path d="M4090 953 c-15 -51 -9 -113 12 -127 15 -9 26 -1 67 44 46 52 48 56
33 74 -20 22 -65 46 -86 46 -9 0 -20 -16 -26 -37z m58 7 c4 0 15 -7 26 -15 17
-13 17 -16 -19 -59 -40 -49 -55 -51 -55 -7 0 55 12 92 27 87 8 -4 18 -6 21 -6z"/>
<path d="M2860 930 c-16 -17 -35 -44 -42 -60 -11 -26 -18 -30 -50 -30 -24 0
-38 -5 -38 -12 0 -29 13 -58 25 -58 9 0 7 -20 -11 -75 -41 -129 -27 -181 51
-201 39 -11 54 -7 93 22 34 27 36 32 23 52 -6 11 -15 10 -44 -4 -20 -10 -40
-15 -44 -11 -8 9 9 86 37 160 17 46 27 58 48 63 56 12 62 16 62 36 0 12 -8 22
-20 25 -20 5 -20 6 5 39 32 41 31 49 -2 62 -62 23 -64 23 -93 -8z m65 -2 c31
-14 31 -15 0 -60 -14 -20 -25 -39 -25 -42 0 -4 11 -6 25 -6 39 0 29 -18 -14
-25 -37 -6 -41 -10 -65 -68 -65 -159 -56 -226 27 -186 21 10 21 9 -2 -10 -30
-27 -71 -27 -105 0 -34 27 -34 69 2 176 27 80 27 82 8 85 -36 5 -30 28 7 28
26 0 37 5 42 19 6 20 62 101 70 101 2 0 16 -5 30 -12z"/>
<path d="M4617 910 c-14 -17 -34 -44 -44 -61 -16 -27 -22 -30 -50 -25 -31 4
-33 3 -33 -24 0 -16 7 -35 15 -43 13 -13 13 -21 1 -54 -8 -22 -19 -65 -26 -96
-13 -66 -5 -88 43 -117 50 -31 76 -26 146 26 2 2 1 14 -3 28 l-6 26 -33 -20
c-17 -11 -35 -20 -39 -20 -15 0 -8 61 13 123 29 88 41 103 88 111 23 3 41 10
41 15 0 21 -13 41 -26 41 -20 0 -18 8 11 46 l25 33 -22 15 c-48 31 -73 30
-101 -4z m85 -8 c4 -4 -6 -28 -22 -52 l-30 -45 30 -3 c38 -4 29 -22 -10 -22
-36 0 -52 -23 -86 -117 -26 -76 -31 -141 -11 -149 8 -3 26 0 42 6 41 16 43 4
2 -16 -41 -20 -77 -13 -107 19 -25 26 -21 60 16 170 13 39 24 72 24 74 0 2 -9
3 -20 3 -13 0 -20 7 -20 18 0 14 6 18 28 15 24 -4 32 3 66 57 35 55 42 61 65
55 14 -4 29 -10 33 -13z"/>
<path d="M3480 878 c-20 -33 -111 -258 -150 -373 -30 -88 -37 -168 -16 -199 9
-14 25 -30 36 -36 17 -9 20 -6 30 32 36 139 72 241 81 226 13 -24 55 -30 92
-14 77 32 139 124 153 225 6 44 4 52 -19 75 -30 30 -62 33 -95 10 -24 -17 -31
-4 -7 16 8 7 15 16 15 21 0 12 -40 35 -73 43 -23 5 -30 2 -47 -26z m90 -15 c0
-3 -13 -29 -29 -57 -49 -88 -46 -98 12 -40 37 37 62 54 80 54 32 0 57 -24 57
-54 0 -41 -30 -122 -60 -165 -33 -45 -107 -88 -135 -77 -15 5 -10 14 28 55 25
26 54 66 65 87 25 49 47 122 39 130 -10 11 -53 -26 -105 -89 -56 -69 -94 -155
-138 -314 -26 -98 -29 -102 -46 -86 -38 34 -16 135 82 383 77 197 81 202 120
189 16 -6 30 -13 30 -16z m4 -179 c-30 -60 -105 -145 -111 -127 -6 18 31 84
83 148 56 68 68 58 28 -21z"/>
<path d="M816 839 c-21 -63 -69 -149 -97 -175 l-21 -19 7 85 c4 47 9 91 11 99
3 8 -1 18 -8 23 -20 12 -84 9 -95 -4 -6 -7 -13 -60 -16 -118 -3 -58 -11 -119
-17 -137 -13 -36 -2 -66 29 -83 41 -22 199 129 265 254 34 64 34 99 1 114 -39
18 -41 16 -59 -39z m64 3 c0 -43 -65 -147 -139 -222 -83 -84 -114 -101 -138
-77 -13 13 -13 21 -3 53 7 21 16 83 19 138 l6 101 36 3 35 3 -7 -83 c-5 -46
-11 -105 -14 -133 l-6 -49 21 19 c36 32 116 159 135 214 13 36 24 51 37 51 11
0 18 -7 18 -18z"/>
<path d="M948 853 c-48 -51 -108 -191 -108 -254 0 -30 34 -65 73 -74 23 -6 33
-2 61 29 l34 35 16 -23 c16 -25 78 -52 95 -42 5 3 7 32 4 64 -4 51 -1 65 36
140 23 46 41 89 41 96 0 14 -42 36 -69 36 -24 0 -43 -23 -79 -95 -33 -67 -92
-146 -92 -124 0 21 58 139 86 176 l24 32 -29 16 c-43 22 -64 19 -93 -12z m75
1 c12 -4 7 -21 -28 -87 -49 -94 -68 -147 -63 -179 3 -20 10 -14 55 42 29 36
69 98 89 138 28 56 40 72 57 72 49 0 49 -12 6 -104 -35 -75 -40 -95 -37 -142
1 -30 1 -54 -2 -54 -3 0 -20 9 -37 20 -26 16 -33 26 -33 52 l-1 33 -49 -55
c-48 -54 -49 -55 -76 -40 -43 24 -50 43 -36 97 18 67 54 142 86 181 28 32 41
37 69 26z"/>
<path d="M1315 864 c-84 -45 -148 -144 -149 -231 -1 -62 24 -102 74 -119 45
-15 81 -1 144 58 48 44 50 48 34 64 -16 16 -19 15 -54 -15 -59 -52 -104 -62
-104 -23 0 11 17 24 44 35 106 44 175 179 112 220 -37 25 -68 28 -101 11z m94
-29 c9 -9 11 -24 7 -47 -11 -59 -40 -93 -110 -129 -69 -36 -80 -55 -53 -94 12
-16 18 -17 48 -6 18 6 48 26 66 43 18 18 33 27 33 22 0 -13 -58 -68 -87 -83
-82 -42 -151 34 -124 136 33 124 160 214 220 158z"/>
<path d="M1329 776 c-21 -14 -45 -44 -58 -70 -26 -57 -26 -59 2 -45 48 25 107
95 107 129 0 16 -12 12 -51 -14z m10 -34 c-14 -23 -56 -52 -44 -30 13 21 48
58 52 54 3 -2 -1 -13 -8 -24z"/>
<path d="M1782 869 c-76 -16 -150 -94 -167 -178 -16 -78 48 -181 114 -181 35
0 124 58 129 83 8 42 -6 49 -45 23 -21 -14 -49 -27 -63 -28 -22 -3 -25 1 -28
31 -5 48 22 111 63 151 41 39 58 33 27 -10 -28 -37 -28 -49 1 -59 46 -17 87
26 87 93 0 55 -52 89 -118 75z m79 -29 c27 -15 26 -83 -1 -110 -37 -37 -66
-14 -31 24 12 12 21 32 21 44 0 52 -83 4 -121 -69 -38 -76 -34 -169 8 -169 9
0 36 11 60 25 55 33 56 15 1 -25 -68 -50 -124 -34 -154 45 -14 37 -14 51 -4
94 25 107 143 182 221 141z"/>
<path d="M1975 860 c-32 -36 -118 -288 -108 -318 5 -13 54 -42 71 -42 5 0 17
26 26 59 16 58 65 137 90 147 8 3 26 -6 41 -20 15 -14 31 -23 36 -20 5 3 9
-15 9 -40 0 -64 18 -96 64 -117 35 -16 44 -16 73 -4 39 17 103 64 103 76 0 5
5 9 10 9 6 0 10 -9 10 -19 0 -30 33 -63 63 -63 15 0 42 11 61 26 34 25 35 26
41 5 9 -28 47 -41 85 -28 31 11 38 23 20 34 -19 12 -9 90 20 164 33 83 30 95
-23 107 -18 3 -43 14 -57 23 -34 23 -60 17 -110 -26 -39 -34 -100 -138 -100
-171 0 -8 -7 -11 -18 -8 -12 4 -27 -3 -43 -20 -25 -26 -70 -54 -89 -54 -5 0
-10 10 -10 23 0 18 12 29 54 49 64 32 101 76 115 138 10 43 10 46 -20 73 -26
24 -37 28 -63 23 -41 -8 -105 -54 -133 -94 -25 -38 -35 -30 -24 20 10 43 -1
58 -40 58 -16 0 -33 -9 -43 -22 -9 -13 -13 -16 -10 -6 6 17 -9 28 -59 47 -20
8 -29 6 -42 -9z m77 -26 c5 -3 3 -13 -5 -22 -17 -19 -49 -93 -43 -99 2 -2 28
24 59 57 34 37 64 60 77 60 12 0 18 -5 15 -10 -3 -6 -6 -29 -6 -53 0 -82 -24
-102 -57 -47 l-18 29 -38 -31 c-37 -30 -96 -134 -96 -169 0 -25 -11 -29 -35
-13 l-23 15 19 69 c19 69 48 148 76 207 13 29 17 31 40 22 14 -5 30 -12 35
-15z m321 -4 c21 -17 24 -25 18 -53 -5 -18 -13 -43 -20 -55 -14 -26 -76 -73
-121 -92 -23 -10 -30 -19 -30 -40 0 -34 22 -54 50 -45 11 4 41 22 65 41 25 18
45 30 45 24 0 -5 -23 -28 -51 -50 -37 -29 -60 -40 -85 -40 -136 0 -97 237 51
314 39 20 47 20 78 -4z m229 -7 c23 -21 23 -40 0 -47 -48 -16 -132 -135 -132
-188 0 -64 60 -7 140 132 24 41 44 76 46 78 1 2 11 -1 22 -7 20 -10 19 -12 -6
-73 -18 -43 -26 -82 -26 -123 -1 -49 -4 -61 -20 -68 -42 -17 -58 44 -31 118 4
11 -10 -5 -31 -34 -22 -30 -53 -63 -70 -73 -30 -18 -32 -18 -54 0 -44 35 -17
166 48 236 24 25 80 66 91 66 3 0 13 -7 23 -17z m-6 -88 c-8 -22 -84 -133 -96
-140 -28 -17 12 72 55 124 28 33 51 42 41 16z"/>
<path d="M2294 758 c-33 -30 -79 -106 -69 -116 7 -8 88 57 107 85 19 30 24 63
8 63 -5 0 -26 -15 -46 -32z m17 -26 c-11 -21 -41 -48 -41 -38 0 4 7 18 16 31
19 29 40 34 25 7z"/>
<path d="M3063 839 c-74 -37 -131 -123 -140 -213 -6 -66 24 -116 79 -130 47
-12 84 3 145 60 46 43 46 44 28 64 l-19 21 -35 -35 c-37 -35 -84 -60 -95 -49
-18 18 -2 42 45 63 60 29 104 75 118 127 17 59 14 72 -21 93 -41 25 -53 25
-105 -1z m97 -17 c18 -15 21 -23 15 -56 -10 -51 -54 -99 -121 -132 -58 -28
-70 -56 -39 -88 20 -19 54 -8 108 35 47 38 49 21 1 -21 -67 -59 -111 -64 -156
-19 -29 28 -30 34 -25 85 9 83 60 161 132 198 39 20 58 20 85 -2z"/>
<path d="M3080 754 c-29 -25 -70 -91 -70 -114 0 -15 84 44 102 72 43 66 25 90
-32 42z m5 -44 c-16 -16 -31 -28 -34 -25 -2 3 8 19 24 35 16 16 31 28 34 25 2
-3 -8 -19 -24 -35z"/>
<path d="M3767 813 c-40 -78 -92 -250 -88 -290 1 -12 51 -43 69 -43 5 0 15 21
21 47 16 61 37 101 74 140 l31 33 28 -27 c25 -24 31 -26 49 -15 18 12 19 10
13 -15 -13 -49 -10 -112 6 -127 8 -9 26 -17 40 -18 21 -3 25 2 30 32 10 56 49
152 77 189 l26 34 -31 29 c-18 15 -41 28 -51 28 -22 0 -71 -54 -71 -78 0 -10
-3 -13 -10 -6 -5 5 -6 24 0 48 5 22 7 44 4 48 -7 11 -72 10 -79 -2 -4 -6 -17
-2 -33 10 -15 10 -39 22 -54 25 -24 6 -29 2 -51 -42z m66 16 c12 -7 24 -13 26
-15 1 -1 -9 -28 -24 -59 -15 -30 -25 -58 -23 -61 3 -3 33 25 66 61 42 46 64
63 76 59 9 -3 13 -10 10 -16 -3 -5 -6 -31 -6 -58 1 -72 -24 -85 -60 -31 l-17
23 -49 -49 c-38 -38 -54 -64 -68 -109 -22 -72 -18 -67 -43 -59 -14 4 -21 15
-21 30 0 48 88 295 105 295 4 0 16 -5 28 -11z m261 -54 c18 -14 18 -17 -17
-87 -20 -40 -42 -97 -50 -127 l-14 -54 -21 21 c-12 12 -22 26 -22 31 0 32 33
158 50 191 22 42 42 49 74 25z"/>
<path d="M4190 814 c-42 -68 -90 -187 -97 -244 -6 -53 14 -100 42 -100 7 0 34
26 58 58 25 31 58 69 73 84 l29 27 -3 -49 c-3 -42 0 -53 22 -75 29 -29 57 -32
97 -8 34 20 34 47 0 51 -20 3 -22 8 -17 34 8 40 53 130 73 145 23 18 3 60 -32
69 -31 8 -64 -6 -118 -49 -35 -27 -38 -28 -28 -8 15 28 0 74 -33 96 -30 22
-33 20 -66 -31z m79 -14 c13 -24 11 -31 -34 -108 -26 -45 -46 -85 -43 -87 2
-3 31 25 63 61 96 109 164 147 195 109 10 -12 9 -18 -6 -32 -27 -27 -67 -122
-68 -162 -1 -31 2 -36 22 -35 12 0 22 -2 22 -6 0 -9 -46 -30 -65 -30 -43 0
-59 75 -29 145 8 20 13 39 10 42 -8 8 -104 -87 -153 -150 -36 -47 -48 -56 -59
-46 -27 22 -13 101 36 214 50 115 79 138 109 85z"/>
</g>
</svg>
